# xmcd
#
# Track frame offsets:
# 150
# 10884
# 24476
# 34688
# 52252
# 60794
# 73558
# 86465
# 97579
# 107879
# 118798
# 135120
# 149027
# 162516
# 173971
# 187330
# 201534
# 217296
# 230077
# 241874
# 255811
# 270861
# 282650
# 293752
# 307374
# 321019
# 334535
#
# Disc length: 4656 seconds
#
#
# Revision: 0
# Processed by: cddbd v1.5.2PL0 Copyright (c) Steve Scherf et al.
# Submitted via: FreeRIP 2.951 
#
DISCID=94122e1b
DTITLE=Hermanas Huerta - 27 Exitos
DYEAR=1900
DGENRE=Latin
TTITLE0=No sigas llorando -
TTITLE1=Busca otra amor -Hermanas Huerta
TTITLE2=Pajarillo barranqueño -Hermanas Huerta
TTITLE3=Una aventura - Hermanas Huerta
TTITLE4=Ingratos ojos mios - Hermanas Huerta
TTITLE5=Que casualidad - Hermanas Huerta
TTITLE6=Dime una aventura - Hermanas Huerta
TTITLE7=Tragos amargos - Hermanas Huerta
TTITLE8=Con la tinta de mi sangre -Hermanas Huerta
TTITLE9=El chubasco - Hermanas Huerta
TTITLE10=Cuando dos almas -Hermanas Huerta
TTITLE11=Nieves de enero -Hermanas Huerta
TTITLE12=Sea por Dios - Hermanas Huerta
TTITLE13=El bato gacho -Hermanas Huerta
TTITLE14=Atotonilco - Hermanas Huerta
TTITLE15=El bracero fracasado -Hermanas Huerta
TTITLE16=Echenme la tierra encima -Hermanas Huerta
TTITLE17=Te volaste la barda -Hermanas Huerta
TTITLE18=Cumpleaños -Hermanas Huerta
TTITLE19=Puerto de ilución - Hermanas Huerta
TTITLE20=Una pagina más -Hermanas Huerta
TTITLE21=Que se acabe la vida -Hermanas Huerta
TTITLE22=Mi gusto es -Hermanas Huerta
TTITLE23=Tampico hermoso -Hermanas Huerta
TTITLE24=Te vas angel mio -Hermanas Huerta
TTITLE25=Tristes recuerdos-  Hermanas Huerta
TTITLE26=Hermanas Huerta
EXTD=
EXTT0=
EXTT1=
EXTT2=
EXTT3=
EXTT4=
EXTT5=
EXTT6=
EXTT7=
EXTT8=
EXTT9=
EXTT10=
EXTT11=
EXTT12=
EXTT13=
EXTT14=
EXTT15=
EXTT16=
EXTT17=
EXTT18=
EXTT19=
EXTT20=
EXTT21=
EXTT22=
EXTT23=
EXTT24=
EXTT25=
EXTT26=
PLAYORDER=
